# xmcd
#
# Track frame offsets:
#       217
#       48615
#       122495
#       175720
#
# Disc length: 3341 seconds
#
# Revision: 0
# Processed by: cddbd v1.5.2PL0 Copyright (c) Steve Scherf et al.
# Submitted via: WaveLab 4.01
#
DISCID=2c0d0b04
DTITLE=Fische - Musik und Enspannung im Zeichen der Sterne
DYEAR=1900
DGENRE=
TTITLE0=1. Stärken, Telente und Anlagen
TTITLE1=2. Geführte Meditation zur Entspannung
TTITLE2=3. Schattenseiten und Schwächen
TTITLE3=4. Geführte Medatation zur Entspannung
EXTD=
EXTT0=
EXTT1=
EXTT2=
EXTT3=
PLAYORDER=
